<svg width="24" height="24" viewBox="0 0 24 24" fill="none" xmlns="http://www.w3.org/2000/svg">
<path d="M9.74988 3.1039V8.8179C9.74988 9.11337 9.69169 9.40596 9.57862 9.67894C9.46554 9.95192 9.29981 10.2 9.09088 10.4089L4.99988 14.4999M9.74988 3.1039C9.49888 3.1269 9.24888 3.1539 8.99988 3.1859M9.74988 3.1039C11.2467 2.96472 12.7531 2.96472 14.2499 3.1039M4.99988 14.4999L5.76988 14.3069C7.86288 13.7897 10.0717 14.0354 11.9999 14.9999C13.9281 15.9644 16.1369 16.2101 18.2299 15.6929L19.7999 15.2999M4.99988 14.4999L2.79788 16.7029C1.56488 17.9339 2.14688 20.0199 3.86488 20.3129C6.50888 20.7649 9.22688 20.9999 11.9999 20.9999C14.7261 21.0008 17.4475 20.771 20.1349 20.3129C21.8519 20.0199 22.4339 17.9339 21.2019 16.7019L19.7999 15.2999M14.2499 3.1039V8.8179C14.2499 9.4149 14.4869 9.9879 14.9089 10.4089L19.7999 15.2999M14.2499 3.1039C14.5009 3.1269 14.7509 3.1539 14.9999 3.1859" stroke="black" stroke-width="1.7" stroke-linecap="round" stroke-linejoin="round"/>
</svg>
