<svg width="24" height="24" viewBox="0 0 24 24" fill="none" xmlns="http://www.w3.org/2000/svg">
<path d="M16 11.0005C16 8.79135 14.2091 7.00049 12 7.00049C9.79086 7.00049 8 8.79135 8 11.0005C8 13.2096 9.79086 15.0005 12 15.0005C14.2091 15.0005 16 13.2096 16 11.0005Z" stroke="black" stroke-width="1.7" stroke-linecap="round" stroke-linejoin="round"/>
<path d="M5.07026 15C4.38958 13.8233 4 12.4571 4 11C4 6.58172 7.58172 3 12 3C16.4183 3 20 6.58172 20 11C20 12.4571 19.6104 13.8233 18.9297 15" stroke="black" stroke-width="1.7" stroke-linecap="round" stroke-linejoin="round"/>
<path d="M18 21C18 17.6863 15.3137 15 12 15C8.68629 15 6 17.6863 6 21" stroke="black" stroke-width="1.7" stroke-linecap="round" stroke-linejoin="round"/>
</svg>
