<svg width="24" height="24" viewBox="0 0 24 24" fill="none" xmlns="http://www.w3.org/2000/svg">
<path d="M6 22.001V13.6954C6 12.1297 6 11.3469 6.21454 10.6087C6.42908 9.87046 6.84589 9.2191 7.6795 7.9164L10.3359 3.76517C11.0885 2.58904 11.4648 2.00098 12 2.00098C12.5352 2.00098 12.9115 2.58904 13.6641 3.76517L16.3205 7.9164C17.1541 9.2191 17.5709 9.87046 17.7855 10.6087C18 11.3469 18 12.1297 18 13.6954V22.001" stroke="black" stroke-width="1.7" stroke-linecap="round" stroke-linejoin="round"/>
<path d="M7 11.001C7.63152 11.3241 8.4887 11.9742 9.28009 12.0001C10.2988 12.0334 10.9868 11.1382 12 11.1382C13.0132 11.1382 13.7012 12.0334 14.7199 12.0001C15.5113 11.9742 16.3685 11.3241 17 11.001" stroke="black" stroke-width="1.7" stroke-linecap="round" stroke-linejoin="round"/>
<path d="M12 12V22" stroke="black" stroke-width="1.7" stroke-linecap="round" stroke-linejoin="round"/>
<path d="M10 5.00098H14" stroke="black" stroke-width="1.7" stroke-linecap="round" stroke-linejoin="round"/>
</svg>
