<svg width="24" height="24" viewBox="0 0 24 24" fill="none" xmlns="http://www.w3.org/2000/svg">
<path d="M21.5 12.0005C21.5 17.2472 17.2467 21.5005 12 21.5005C10.3719 21.5005 8.8394 21.0909 7.5 20.3692C5.63177 19.3625 4.37462 20.2984 3.26592 20.4663C3.09774 20.4918 2.93024 20.4307 2.80997 20.3105C2.62741 20.1279 2.59266 19.8456 2.6935 19.6079C3.12865 18.5823 3.5282 16.6387 2.98341 15.0005C2.6698 14.0575 2.5 13.0488 2.5 12.0005C2.5 6.75378 6.75329 2.50049 12 2.50049C17.2467 2.50049 21.5 6.75378 21.5 12.0005Z" stroke="black" stroke-width="1.7" stroke-linecap="round" stroke-linejoin="round"/>
<path d="M12 16C12 16 8 13.5294 8 11.1389C8 9.95762 8.8421 9 10 9C10.6 9 11.2 9.20589 12 10.0294C12.8 9.20589 13.4 9 14 9C15.1579 9 16 9.95762 16 11.1389C16 13.5294 12 16 12 16Z" stroke="black" stroke-width="1.7" stroke-linecap="round" stroke-linejoin="round"/>
</svg>
