<svg width="24" height="24" viewBox="0 0 24 24" fill="none" xmlns="http://www.w3.org/2000/svg">
<path d="M14 16V8C14 7.05719 14 6.58579 13.7071 6.29289C13.4142 6 12.9428 6 12 6C11.0572 6 10.5858 6 10.2929 6.29289C10 6.58579 10 7.05719 10 8V16C10 16.9428 10 17.4142 10.2929 17.7071C10.5858 18 11.0572 18 12 18C12.9428 18 13.4142 18 13.7071 17.7071C14 17.4142 14 16.9428 14 16Z" stroke="black" stroke-width="1.7" stroke-linecap="round" stroke-linejoin="round"/>
<path d="M21 8.99951V6.99951C21 6.0567 21 5.5853 20.7071 5.2924C20.4142 4.99951 19.9428 4.99951 19 4.99951C18.0572 4.99951 17.5858 4.99951 17.2929 5.2924C17 5.5853 17 6.0567 17 6.99951V8.99951C17 9.94232 17 10.4137 17.2929 10.7066C17.5858 10.9995 18.0572 10.9995 19 10.9995C19.9428 10.9995 20.4142 10.9995 20.7071 10.7066C21 10.4137 21 9.94232 21 8.99951Z" stroke="black" stroke-width="1.7" stroke-linecap="round" stroke-linejoin="round"/>
<path d="M7 14.0005V12.0005C7 11.0577 7 10.5863 6.70711 10.2934C6.41421 10.0005 5.94281 10.0005 5 10.0005C4.05719 10.0005 3.58579 10.0005 3.29289 10.2934C3 10.5863 3 11.0577 3 12.0005V14.0005C3 14.9433 3 15.4147 3.29289 15.7076C3.58579 16.0005 4.05719 16.0005 5 16.0005C5.94281 16.0005 6.41421 16.0005 6.70711 15.7076C7 15.4147 7 14.9433 7 14.0005Z" stroke="black" stroke-width="1.7" stroke-linecap="round" stroke-linejoin="round"/>
<path d="M12 21V18" stroke="black" stroke-width="1.7" stroke-linecap="round" stroke-linejoin="round"/>
<path d="M19 12.9995V10.9995" stroke="black" stroke-width="1.7" stroke-linecap="round" stroke-linejoin="round"/>
<path d="M12 6V3" stroke="black" stroke-width="1.7" stroke-linecap="round" stroke-linejoin="round"/>
<path d="M19 5V3" stroke="black" stroke-width="1.7" stroke-linecap="round" stroke-linejoin="round"/>
<path d="M5 18.0005V16.0005" stroke="black" stroke-width="1.7" stroke-linecap="round" stroke-linejoin="round"/>
<path d="M5 9.99951V7.99951" stroke="black" stroke-width="1.7" stroke-linecap="round" stroke-linejoin="round"/>
</svg>
