<svg width="24" height="24" viewBox="0 0 24 24" fill="none" xmlns="http://www.w3.org/2000/svg">
<path d="M3.05493 13C3.01863 12.6717 3 12.338 3 12C3 7.02944 7.02944 3 12 3C14.8273 3 17.35 4.30367 19 6.34267M20.9451 11C20.9814 11.3283 21 11.662 21 12C21 16.9706 16.9706 21 12 21C9.17273 21 6.64996 19.6963 5 17.6573" stroke="black" stroke-width="1.7" stroke-linecap="round" stroke-linejoin="round"/>
<path d="M15.9998 7H16.9998C18.414 7 19.1211 7 19.5605 6.56066C19.9998 6.12132 19.9998 5.41421 19.9998 4V3" stroke="black" stroke-width="1.7" stroke-linecap="round" stroke-linejoin="round"/>
<path d="M7.99976 17.001H6.99976C5.58555 17.001 4.87844 17.001 4.4391 17.4403C3.99976 17.8797 3.99976 18.5868 3.99976 20.001V21.001" stroke="black" stroke-width="1.7" stroke-linecap="round" stroke-linejoin="round"/>
</svg>
