<svg width="24" height="24" viewBox="0 0 24 24" fill="none" xmlns="http://www.w3.org/2000/svg">
<path d="M16.4251 4.60509L17.4151 3.6151C18.2353 2.79497 19.565 2.79497 20.3851 3.6151C21.2052 4.43524 21.2052 5.76493 20.3851 6.58507L19.3951 7.57506M16.4251 4.60509L9.76582 11.2644C9.25831 11.772 8.89828 12.4078 8.72421 13.1041L8.00024 16L10.8961 15.276C11.5924 15.102 12.2282 14.7419 12.7358 14.2344L19.3951 7.57506M16.4251 4.60509L19.3951 7.57506" stroke="black" stroke-width="1.7" stroke-linejoin="round"/>
<path d="M18.9999 13.501C18.9999 16.7885 18.9999 18.4322 18.092 19.5386C17.9258 19.7411 17.7401 19.9268 17.5375 20.093C16.4312 21.001 14.7874 21.001 11.4999 21.001H11C7.22876 21.001 5.34316 21.001 4.17159 19.8294C3.00003 18.6579 3 16.7722 3 13.001V12.501C3 9.2135 3 7.56977 3.90794 6.46342C4.07417 6.26088 4.2599 6.07515 4.46244 5.90892C5.56879 5.00098 7.21252 5.00098 10.5 5.00098" stroke="black" stroke-width="1.7" stroke-linejoin="round"/>
</svg>
