<svg width="24" height="24" viewBox="0 0 24 24" fill="none" xmlns="http://www.w3.org/2000/svg">
<path d="M21.3173 7.14042L20.8237 6.28382C20.4504 5.63599 20.2638 5.31208 19.9462 5.18291C19.6286 5.05375 19.2694 5.15567 18.5511 5.35951L17.3309 5.70321C16.8723 5.80897 16.3911 5.74897 15.9724 5.53382L15.6355 5.33945C15.2764 5.10946 15.0002 4.77036 14.8473 4.37177L14.5134 3.37439C14.2938 2.71437 14.184 2.38436 13.9226 2.1956C13.6613 2.00684 13.3141 2.00684 12.6197 2.00684H11.5049C10.8106 2.00684 10.4634 2.00684 10.202 2.1956C9.9406 2.38436 9.83081 2.71437 9.61124 3.37439L9.27728 4.37177C9.1244 4.77036 8.8482 5.10946 8.48912 5.33945L8.15224 5.53382C7.73349 5.74897 7.25234 5.80897 6.79373 5.70321L5.5735 5.35951C4.85516 5.15567 4.496 5.05375 4.17842 5.18291C3.86084 5.31208 3.6742 5.63599 3.3009 6.28382L2.80732 7.14042C2.45741 7.74767 2.28245 8.0513 2.31641 8.37452C2.35036 8.69774 2.58458 8.95821 3.05301 9.47915L4.08405 10.6318C4.33605 10.9508 4.51496 11.5068 4.51496 12.0067C4.51496 12.5068 4.33611 13.0626 4.08408 13.3817L3.05301 14.5344C2.58458 15.0554 2.35037 15.3158 2.31641 15.6391C2.28245 15.9623 2.45741 16.2659 2.80732 16.8731L3.30089 17.7297C3.67418 18.3775 3.86084 18.7015 4.17842 18.8306C4.496 18.9598 4.85517 18.8579 5.57352 18.654L6.79369 18.3103C7.25238 18.2045 7.73362 18.2646 8.15242 18.4798L8.48925 18.6742C8.84826 18.9042 9.12439 19.2432 9.27725 19.6418L9.61124 20.6393C9.83081 21.2993 9.9406 21.6293 10.202 21.8181C10.4634 22.0068 10.8106 22.0068 11.5049 22.0068H12.6197C13.3141 22.0068 13.6613 22.0068 13.9226 21.8181C14.184 21.6293 14.2938 21.2993 14.5134 20.6393L14.8474 19.6418C15.0002 19.2432 15.2763 18.9042 15.6354 18.6742L15.9722 18.4798C16.391 18.2646 16.8722 18.2045 17.3309 18.3103L18.5511 18.654C19.2694 18.8579 19.6286 18.9598 19.9462 18.8306C20.2638 18.7015 20.4504 18.3775 20.8237 17.7297L21.3173 16.8731C21.6672 16.2659 21.8421 15.9623 21.8082 15.6391C21.7742 15.3158 21.54 15.0554 21.0716 14.5344L20.0405 13.3817C19.7885 13.0626 19.6096 12.5068 19.6096 12.0067C19.6096 11.5068 19.7886 10.9508 20.0405 10.6318L21.0716 9.47915C21.54 8.95821 21.7742 8.69774 21.8082 8.37452C21.8421 8.0513 21.6672 7.74767 21.3173 7.14042Z" stroke="black" stroke-width="1.7" stroke-linecap="round"/>
<path d="M15.5195 11.999C15.5195 13.932 13.9525 15.499 12.0195 15.499C10.0865 15.499 8.51953 13.932 8.51953 11.999C8.51953 10.066 10.0865 8.49902 12.0195 8.49902C13.9525 8.49902 15.5195 10.066 15.5195 11.999Z" stroke="black" stroke-width="1.7" stroke-linecap="round"/>
</svg>
