<svg width="24" height="24" viewBox="0 0 24 24" fill="none" xmlns="http://www.w3.org/2000/svg">
<path d="M10.4654 19.0055L8.02099 11.9833C7.10173 9.34249 6.64208 8.02208 7.33296 7.33173C8.02385 6.64139 9.3453 7.10067 11.9882 8.01922L19.0012 10.4566C20.4673 10.9661 21.2003 11.2209 21.3585 11.7144C21.4021 11.8504 21.4172 11.9939 21.4027 12.1361C21.3503 12.6516 20.686 13.0526 19.3574 13.8546C18.5055 14.3688 18.0796 14.6259 17.966 15.0139C17.9339 15.1237 17.9201 15.2381 17.9253 15.3524C17.9436 15.7562 18.2964 16.1068 19.002 16.8081L21.3211 19.113C21.6683 19.4581 21.8419 19.6306 21.9216 19.8236C22.0258 20.0762 22.0262 20.3596 21.9226 20.6124C21.8435 20.8056 21.6704 20.9786 21.3241 21.3246C20.9787 21.6698 20.806 21.8424 20.613 21.9214C20.3605 22.0249 20.0774 22.0249 19.8249 21.9214C19.6319 21.8424 19.4592 21.6698 19.1137 21.3246L16.786 18.9987C16.092 18.3052 15.7449 17.9585 15.3467 17.9377C15.2261 17.9314 15.1054 17.9461 14.99 17.9812C14.6084 18.0972 14.3552 18.5173 13.8487 19.3574C13.0566 20.6711 12.6606 21.328 12.1522 21.3858C12.0023 21.4028 11.8505 21.387 11.7073 21.3395C11.2217 21.1783 10.9696 20.454 10.4654 19.0055Z" stroke="black" stroke-width="1.7" stroke-linecap="round" stroke-linejoin="round"/>
<path d="M9 4.00098V2.00098M5 5.00098L3.5 3.50098M4 9.00098H2M5 13.001L3.5 14.501M14.5 3.50098L13 5.00098" stroke="black" stroke-width="1.7" stroke-linecap="round" stroke-linejoin="round"/>
</svg>
