<svg width="24" height="24" viewBox="0 0 24 24" fill="none" xmlns="http://www.w3.org/2000/svg">
<path fill-rule="evenodd" clip-rule="evenodd" d="M12 9.86918C13.9623 6.62118 15.6835 4.99951 17.1647 4.99951C19.387 4.99951 20.7904 7.58134 21.6093 11.086C22.3915 14.4332 22.1649 18.9995 19.387 18.9995C18.1491 18.9995 16.4446 17.1737 14.7779 14.7388C13.7173 13.2045 12.7878 11.575 12 9.86918Z" stroke="black" stroke-width="1.7" stroke-linecap="round" stroke-linejoin="round"/>
<path fill-rule="evenodd" clip-rule="evenodd" d="M12 9.86918C9.84147 6.62118 7.94817 4.99951 6.31888 4.99951C3.87433 4.99951 2.3306 7.58134 1.42978 11.086C0.569304 14.4332 0.818648 18.9995 3.87433 18.9995C5.23594 18.9995 7.11091 17.1737 8.94432 14.7388C10.1666 13.116 11.1847 11.492 12 9.86918Z" stroke="black" stroke-width="1.7" stroke-linecap="round" stroke-linejoin="round"/>
</svg>
