<svg width="24" height="24" viewBox="0 0 24 24" fill="none" xmlns="http://www.w3.org/2000/svg">
<path d="M17.5 5.00098C18.3284 5.00098 19 5.67255 19 6.50098C19 7.3294 18.3284 8.00098 17.5 8.00098C16.6716 8.00098 16 7.3294 16 6.50098C16 5.67255 16.6716 5.00098 17.5 5.00098Z" stroke="black" stroke-width="1.7" stroke-linecap="round" stroke-linejoin="round"/>
<path d="M2.77423 11.1449C1.77108 12.2653 1.7495 13.9556 2.67016 15.1447C4.49711 17.5043 6.49674 19.5039 8.85633 21.3308C10.0454 22.2515 11.7357 22.2299 12.8561 21.2268C15.8979 18.5032 18.6835 15.6569 21.3719 12.5289C21.6377 12.2197 21.8039 11.8407 21.8412 11.4346C22.0062 9.63896 22.3452 4.46565 20.9403 3.06072C19.5353 1.65579 14.362 1.99475 12.5664 2.15974C12.1603 2.19706 11.7813 2.36331 11.472 2.62909C8.34412 5.31744 5.49781 8.10309 2.77423 11.1449Z" stroke="black" stroke-width="1.7" stroke-linecap="round" stroke-linejoin="round"/>
<path d="M7 14.001L9.99998 17.001" stroke="black" stroke-width="1.7" stroke-linecap="round" stroke-linejoin="round"/>
</svg>
