<svg width="24" height="24" viewBox="0 0 24 24" fill="none" xmlns="http://www.w3.org/2000/svg">
<path d="M2.5 12.0005C2.5 7.52214 2.5 5.28297 3.89124 3.89173C5.28249 2.50049 7.52166 2.50049 12 2.50049C16.4783 2.50049 18.7175 2.50049 20.1088 3.89173C21.5 5.28297 21.5 7.52214 21.5 12.0005C21.5 16.4789 21.5 18.718 20.1088 20.1093C18.7175 21.5005 16.4783 21.5005 12 21.5005C7.52166 21.5005 5.28249 21.5005 3.89124 20.1093C2.5 18.718 2.5 16.4789 2.5 12.0005Z" stroke="black" stroke-width="1.7" stroke-linecap="round"/>
<path d="M2.5 9H21.5" stroke="black" stroke-width="1.7" stroke-linecap="round"/>
<path d="M6.99976 6H7.00948" stroke="black" stroke-width="1.7" stroke-linecap="round"/>
<path d="M11 6H11.0097" stroke="black" stroke-width="1.7" stroke-linecap="round"/>
<path d="M17 17C17 14.2386 14.7614 12 12 12C9.23858 12 7 14.2386 7 17" stroke="black" stroke-width="1.7" stroke-linecap="round"/>
<path d="M12.7072 15.293L11.293 16.7072" stroke="black" stroke-width="1.7" stroke-linecap="round"/>
</svg>
