<svg width="24" height="24" viewBox="0 0 24 24" fill="none" xmlns="http://www.w3.org/2000/svg">
<path d="M8 6.99902H16C17.8856 6.99902 18.8284 6.99902 19.4142 7.58481C20 8.17059 20 9.1134 20 10.999V14.999C20 18.2988 20 19.9487 18.9749 20.9739C17.9497 21.999 16.2998 21.999 13 21.999H11C7.70017 21.999 6.05025 21.999 5.02513 20.9739C4 19.9487 4 18.2988 4 14.999V10.999C4 9.1134 4 8.17059 4.58579 7.58481C5.17157 6.99902 6.11438 6.99902 8 6.99902Z" stroke="black" stroke-width="1.7" stroke-linecap="round" stroke-linejoin="round"/>
<path d="M16 9.50098C16 5.63499 14.2091 2.00098 12 2.00098C9.79086 2.00098 8 5.63499 8 9.50098" stroke="black" stroke-width="1.7" stroke-linecap="round" stroke-linejoin="round"/>
</svg>
