<svg width="24" height="24" viewBox="0 0 24 24" fill="none" xmlns="http://www.w3.org/2000/svg">
<path d="M12 22C16.9706 22 21 19.0899 21 15.5C21 11.9101 16.9706 9 12 9C7.02944 9 3 11.9101 3 15.5C3 19.0899 7.02944 22 12 22Z" stroke="black" stroke-width="1.7" stroke-linecap="round"/>
<path d="M15.5 16.7798C14.5149 17.5475 13.3062 17.9997 12 17.9997C10.6938 17.9997 9.48512 17.5475 8.5 16.7798" stroke="black" stroke-width="1.7" stroke-linecap="round"/>
<path d="M19 5.99951C20.1046 5.99951 21 5.10408 21 3.99951C21 2.89494 20.1046 1.99951 19 1.99951C17.8954 1.99951 17 2.89494 17 3.99951C17 5.10408 17.8954 5.99951 19 5.99951Z" stroke="black" stroke-width="1.7" stroke-linecap="round"/>
<path d="M18 10.0694C18.3687 9.43053 19.0634 9 19.8595 9C21.0417 9 22 9.94921 22 11.1201C22 11.937 21.5336 12.6459 20.8502 13" stroke="black" stroke-width="1.7" stroke-linecap="round"/>
<path d="M6 10.0694C5.63125 9.43053 4.93663 9 4.14048 9C2.95833 9 2 9.94921 2 11.1201C2 11.937 2.4664 12.6459 3.14981 13" stroke="black" stroke-width="1.7" stroke-linecap="round"/>
<path d="M17 4.00049C14.643 4.00049 13.4645 4.00049 12.7322 4.73272C12 5.46496 12 6.64347 12 9.00049" stroke="black" stroke-width="1.7" stroke-linecap="round"/>
<path d="M9.00876 13.0005H8.99902" stroke="black" stroke-width="1.7" stroke-linecap="round"/>
<path d="M15.0088 13.0005H14.999" stroke="black" stroke-width="1.7" stroke-linecap="round"/>
</svg>
