<svg width="24" height="24" viewBox="0 0 24 24" fill="none" xmlns="http://www.w3.org/2000/svg">
<path d="M3 4.00049V14.0005C3 16.8289 3 18.2431 3.87868 19.1218C4.75736 20.0005 6.17157 20.0005 9 20.0005H21" stroke="black" stroke-width="1.7" stroke-linecap="round" stroke-linejoin="round"/>
<path d="M6 14.0005L9.25 10.7505C9.89405 10.1064 10.2161 9.78441 10.5927 9.67815C10.8591 9.60303 11.1409 9.60303 11.4073 9.67815C11.7839 9.78441 12.1059 10.1064 12.75 10.7505C13.3941 11.3946 13.7161 11.7166 14.0927 11.8228C14.3591 11.898 14.6409 11.898 14.9073 11.8228C15.2839 11.7166 15.6059 11.3946 16.25 10.7505L20 7.00049" stroke="black" stroke-width="1.7" stroke-linecap="round" stroke-linejoin="round"/>
</svg>
