<svg width="24" height="24" viewBox="0 0 24 24" fill="none" xmlns="http://www.w3.org/2000/svg">
<path d="M16 13.5V17.5C16 18.9142 16 19.6213 16.4393 20.0607C16.8787 20.5 17.5858 20.5 19 20.5C20.4142 20.5 21.1213 20.5 21.5606 20.0607C22 19.6213 22 18.9142 22 17.5V13.5C22 12.0858 22 11.3787 21.5606 10.9394C21.1213 10.5 20.4142 10.5 19 10.5C17.5858 10.5 16.8787 10.5 16.4393 10.9394C16 11.3787 16 12.0858 16 13.5Z" stroke="black" stroke-width="1.7" stroke-linecap="round" stroke-linejoin="round"/>
<path d="M4 16.5005V8.50049C4 6.14347 4 4.96495 4.73266 4.23272C5.46533 3.50049 6.64454 3.50049 9.00295 3.50049H16.0071C18.3655 3.50049 19.5447 3.50049 20.2774 4.23272C20.8347 4.78969 20.968 5.60486 21 7.00049" stroke="black" stroke-width="1.7" stroke-linecap="round" stroke-linejoin="round"/>
<path d="M13 20.5005H2.51579C2.13285 20.5005 1.88379 20.1093 2.05505 19.7769L4 16.5005H13" stroke="black" stroke-width="1.7" stroke-linecap="round" stroke-linejoin="round"/>
</svg>
