<svg width="28" height="28" viewBox="0 0 28 28" fill="none" xmlns="http://www.w3.org/2000/svg">
<path fill-rule="evenodd" clip-rule="evenodd" d="M14.0001 4.2002C14.2786 4.2002 14.5456 4.31082 14.7425 4.50773C14.9395 4.70465 15.0501 4.97172 15.0501 5.2502V20.1434L20.5941 14.3222C20.6885 14.2181 20.8028 14.134 20.9303 14.075C21.0578 14.0159 21.1959 13.983 21.3363 13.9782C21.4768 13.9735 21.6168 13.997 21.7479 14.0473C21.8791 14.0977 21.9989 14.1738 22.1001 14.2713C22.2013 14.3688 22.282 14.4856 22.3372 14.6148C22.3925 14.744 22.4212 14.883 22.4218 15.0235C22.4223 15.164 22.3947 15.3032 22.3405 15.4329C22.2862 15.5625 22.2065 15.6799 22.1061 15.7782L14.7561 23.4782C14.6581 23.5798 14.5407 23.6606 14.4108 23.7159C14.2809 23.7711 14.1412 23.7995 14.0001 23.7995C13.8589 23.7995 13.7192 23.7711 13.5894 23.7159C13.4595 23.6606 13.342 23.5798 13.2441 23.4782L5.89408 15.7782C5.79364 15.6799 5.71394 15.5625 5.65971 15.4329C5.60548 15.3032 5.57782 15.164 5.57838 15.0235C5.57893 14.883 5.60769 14.744 5.66294 14.6148C5.7182 14.4856 5.79882 14.3688 5.90005 14.2713C6.00127 14.1738 6.12102 14.0977 6.25222 14.0473C6.38342 13.997 6.52338 13.9735 6.66383 13.9782C6.80427 13.983 6.94233 14.0159 7.06983 14.075C7.19733 14.134 7.31167 14.2181 7.40608 14.3222L12.9501 20.1434V5.2502C12.9501 4.97172 13.0607 4.70465 13.2576 4.50773C13.4545 4.31082 13.7216 4.2002 14.0001 4.2002Z" fill="black" fill-opacity="0.4"/>
</svg>
