<svg width="28" height="28" viewBox="0 0 28 28" fill="none" xmlns="http://www.w3.org/2000/svg">
<path fill-rule="evenodd" clip-rule="evenodd" d="M13.9999 23.7998C13.7214 23.7998 13.4544 23.6892 13.2575 23.4923C13.0605 23.2954 12.9499 23.0283 12.9499 22.7498L12.9499 7.85661L7.40592 13.6778C7.31151 13.7819 7.19716 13.866 7.06966 13.925C6.94216 13.9841 6.8041 14.017 6.66366 14.0218C6.52322 14.0265 6.38325 14.003 6.25205 13.9527C6.12086 13.9023 6.0011 13.8262 5.89988 13.7287C5.79866 13.6312 5.71803 13.5144 5.66278 13.3852C5.60752 13.256 5.57877 13.117 5.57821 12.9765C5.57765 12.836 5.60531 12.6968 5.65954 12.5671C5.71377 12.4375 5.79347 12.3201 5.89392 12.2218L13.2439 4.52181C13.3419 4.42018 13.4593 4.33936 13.5892 4.28415C13.7191 4.22894 13.8588 4.20048 13.9999 4.20048C14.1411 4.20048 14.2808 4.22894 14.4106 4.28415C14.5405 4.33936 14.658 4.42018 14.7559 4.52181L22.1059 12.2218C22.2064 12.3201 22.2861 12.4375 22.3403 12.5671C22.3945 12.6968 22.4222 12.836 22.4216 12.9765C22.4211 13.117 22.3923 13.256 22.3371 13.3852C22.2818 13.5144 22.2012 13.6312 22.1 13.7287C21.9987 13.8262 21.879 13.9023 21.7478 13.9527C21.6166 14.003 21.4766 14.0265 21.3362 14.0218C21.1957 14.017 21.0577 13.9841 20.9302 13.925C20.8027 13.866 20.6883 13.7819 20.5939 13.6778L15.0499 7.85661L15.0499 22.7498C15.0499 23.0283 14.9393 23.2954 14.7424 23.4923C14.5455 23.6892 14.2784 23.7998 13.9999 23.7998Z" fill="black" fill-opacity="0.4"/>
</svg>
