<svg width="24" height="24" viewBox="0 0 24 24" fill="none" xmlns="http://www.w3.org/2000/svg">
<path d="M15.5001 11C15.5001 9.067 13.9331 7.5 12.0001 7.5C10.0671 7.5 8.50012 9.067 8.50012 11C8.50012 12.933 10.0671 14.5 12.0001 14.5C13.9331 14.5 15.5001 12.933 15.5001 11Z" stroke="black" stroke-width="1.75" stroke-linecap="round" stroke-linejoin="round"/>
<path d="M15.4827 11.3499C15.8047 11.4475 16.1462 11.5 16.5 11.5C18.433 11.5 20 9.933 20 8C20 6.067 18.433 4.5 16.5 4.5C14.6851 4.5 13.1928 5.8814 13.0173 7.65013" stroke="black" stroke-width="1.75" stroke-linecap="round" stroke-linejoin="round"/>
<path d="M10.9828 7.65013C10.8073 5.8814 9.31504 4.5 7.50012 4.5C5.56712 4.5 4.00012 6.067 4.00012 8C4.00012 9.933 5.56712 11.5 7.50012 11.5C7.85393 11.5 8.19547 11.4475 8.51739 11.3499" stroke="black" stroke-width="1.75" stroke-linecap="round" stroke-linejoin="round"/>
<path d="M22 16.5005C22 13.7391 19.5376 11.5005 16.5 11.5005" stroke="black" stroke-width="1.75" stroke-linecap="round" stroke-linejoin="round"/>
<path d="M17.4999 19.5005C17.4999 16.7391 15.0375 14.5005 11.9999 14.5005C8.96231 14.5005 6.49988 16.7391 6.49988 19.5005" stroke="black" stroke-width="1.75" stroke-linecap="round" stroke-linejoin="round"/>
<path d="M7.49988 11.5005C4.46231 11.5005 1.99988 13.7391 1.99988 16.5005" stroke="black" stroke-width="1.75" stroke-linecap="round" stroke-linejoin="round"/>
</svg>
