<svg width="24" height="24" viewBox="0 0 24 24" fill="none" xmlns="http://www.w3.org/2000/svg">
<path d="M4.2221 21.9943V18.4446C4.2221 17.1732 3.88915 16.5123 3.2347 15.4073C2.45018 14.0828 1.99988 12.537 1.99988 10.8861C1.99988 5.97817 5.97957 1.99951 10.8888 1.99951C15.798 1.99951 19.7777 5.97817 19.7777 10.8861C19.7777 11.4658 19.7777 11.7557 19.8019 11.9182C19.8597 12.3067 20.041 12.6409 20.2193 12.9868L21.9999 16.4402L20.6005 17.1397C20.1949 17.3424 19.9922 17.4438 19.8509 17.6309C19.7096 17.8179 19.6699 18.0291 19.5903 18.4514L19.5825 18.4926C19.4003 19.4601 19.1992 20.5281 18.6328 21.2019C18.4328 21.4398 18.1852 21.6331 17.9058 21.7694C17.4446 21.9943 16.8776 21.9943 15.7436 21.9943C15.2189 21.9943 14.6927 22.0064 14.1681 21.9937C12.9246 21.9634 11.9999 20.9179 11.9999 19.7039" stroke="black" stroke-width="1.7" stroke-linecap="round" stroke-linejoin="round"/>
<path d="M14.3879 10.531C13.9616 10.531 13.5728 10.3697 13.2783 10.1043M14.3879 10.531C14.3879 11.6769 13.724 12.7653 12.446 12.7653C11.168 12.7653 10.5042 13.8536 10.5042 14.9995M14.3879 10.531C16.5372 10.531 16.5372 7.17968 14.3879 7.17968C14.1926 7.17968 14.0052 7.21354 13.8311 7.27575C13.9361 4.7777 10.3348 4.09951 9.5191 6.43969M9.5191 6.43969C10.1132 6.84061 10.5042 7.52274 10.5042 8.2968M9.5191 6.43969C7.66729 5.18985 5.19871 7.43261 6.37312 9.43228C4.40214 9.72778 4.61287 12.7653 6.62038 12.7653C7.18332 12.7653 7.68099 12.4839 7.98222 12.0533" stroke="black" stroke-width="1.7" stroke-linecap="round" stroke-linejoin="round"/>
</svg>
