<svg width="24" height="24" viewBox="0 0 24 24" fill="none" xmlns="http://www.w3.org/2000/svg">
<path d="M15 4.99951C15 6.65636 13.2418 8.49951 12 8.49951C10.7582 8.49951 9 6.65636 9 4.99951C9 3.34266 10.3431 1.99951 12 1.99951C13.6569 1.99951 15 3.34266 15 4.99951Z" stroke="black" stroke-width="1.76"/>
<path d="M16.0414 9C17.5644 10.3353 18.5513 12.5969 17.6651 14.7052C17.4741 15.1594 17.036 15.4539 16.5513 15.4539C16.0584 15.4539 15.2489 15.296 15.0916 15.9374L13.9944 20.4123C13.7656 21.3454 12.9433 22 12 22C11.0566 22 10.2343 21.3454 10.0055 20.4123L8.90833 15.9374C8.75104 15.296 7.94149 15.4539 7.44862 15.4539C6.9639 15.4539 6.52582 15.1594 6.33488 14.7052C5.44867 12.5969 6.43558 10.3353 7.95857 9" stroke="black" stroke-width="1.76"/>
</svg>
